<?xml version="1.0" encoding="utf-8"?>
<!-- Generator: Adobe Illustrator 27.5.0, SVG Export Plug-In . SVG Version: 6.00 Build 0)  -->
<svg version="1.1" xmlns="http://www.w3.org/2000/svg" xmlns:xlink="http://www.w3.org/1999/xlink" x="0px" y="0px"
	 viewBox="0 0 500 500" style="enable-background:new 0 0 500 500;" xml:space="preserve">
<g id="BACKGROUND">
	<rect style="fill:#E0DFFF;" width="500" height="500"/>
</g>
<g id="OBJECT">
	<g>
		<g>
			<g>
				<path style="fill:#C6C6F7;" d="M401.684,168.019c-5.766,40.366-20.286,51.954-16.663,81.923
					c2.458,20.325,13.886,37.008,22.341,60.642c10.45,29.211-2.449,85.432-76.914,88.304
					c-41.544,1.602-84.271-22.066-124.651-12.314C133.516,404.03,102.13,367.28,97.086,347.792
					c-15.722-60.735,40.02-69.54,13.174-115.317C71.102,165.704,77.093,59.887,202.879,95.041
					c65.975,18.438,118.563-57.235,171.402-21.123C409.586,98.048,405.869,138.716,401.684,168.019z"/>
			</g>
			<circle style="fill:#C6C6F7;" cx="90.807" cy="89.694" r="11.85"/>
			<path style="fill:#C6C6F7;" d="M87.365,116.72c0,3.5-2.838,6.338-6.338,6.338c-3.5,0-6.338-2.838-6.338-6.338
				c0-3.5,2.838-6.338,6.338-6.338C84.528,110.383,87.365,113.22,87.365,116.72z"/>
			<circle style="fill:#C6C6F7;" cx="418.536" cy="305.379" r="7.398"/>
			<path style="fill:#C6C6F7;" d="M429.238,323.414c0,2.368-1.92,4.289-4.289,4.289s-4.289-1.92-4.289-4.289s1.92-4.289,4.289-4.289
				S429.238,321.046,429.238,323.414z"/>
		</g>
		<g>
			<path style="fill:#5757EA;" d="M328.312,335.052l-168.034-0.392c-3.176,0.002-5.759-2.562-5.762-5.738l0.531-240.833
				c-0.002-3.176,2.562-5.759,5.738-5.761l168.034,0.392c3.176-0.002,5.759,2.562,5.761,5.738L334.05,329.29
				C334.16,332.477,331.487,335.049,328.312,335.052z"/>
			<path style="fill:#8D8FFF;" d="M145.012,96.256l-0.507,223.535c0.011,4.162,3.383,7.574,7.545,7.563l165.194,0.319
				c3.717,0.053,6.771-3.028,6.705-6.648l0.51-224.63c0.031-3.501-2.855-6.315-6.356-6.346l-166.614-0.356
				C147.88,89.652,144.945,92.636,145.012,96.256z M165.085,303.838c-3.34,0.533-6.215-2.39-5.761-5.738
				c0.331-2.156,2.037-3.842,4.151-4.173c3.34-0.533,6.215,2.39,5.761,5.738C168.906,301.821,167.2,303.508,165.085,303.838z
				 M165.151,266.945c-3.339,0.533-6.215-2.39-5.761-5.738c0.331-2.156,2.037-3.842,4.151-4.173c3.34-0.533,6.215,2.39,5.762,5.738
				C168.971,264.928,167.265,266.615,165.151,266.945z M165.21,236.512c-3.34,0.533-6.215-2.39-5.762-5.738
				c0.331-2.156,2.037-3.842,4.151-4.173c3.34-0.533,6.215,2.39,5.762,5.738C169.042,234.387,167.324,236.181,165.21,236.512z
				 M165.287,199.51c-3.34,0.533-6.215-2.39-5.762-5.738c0.331-2.156,2.037-3.842,4.151-4.173c3.339-0.533,6.215,2.39,5.761,5.738
				C169.107,197.494,167.39,199.288,165.287,199.51z M165.421,165.143c-3.34,0.533-6.215-2.39-5.762-5.738
				c0.331-2.156,2.037-3.842,4.151-4.173c3.339-0.533,6.215,2.39,5.761,5.738C169.253,163.018,167.536,164.813,165.421,165.143z
				 M165.487,128.25c-3.34,0.533-6.215-2.39-5.761-5.738c0.331-2.156,2.037-3.842,4.151-4.173c3.34-0.533,6.215,2.39,5.761,5.738
				C169.318,126.125,167.601,127.92,165.487,128.25z"/>
			<path style="opacity:0.3;fill:#5757EA;" d="M324.472,123.99c-18.352,37.972-71.301,133.488-155.21,174.364
				c-0.022,0.217,0.064,0.445,0.042,0.661c0.047,2.742-2.268,5.023-4.999,4.961c-1.42-0.036-2.784-0.614-3.659-1.69
				c-5.273,2.305-10.622,4.275-16.176,6.113l0.001,11.716c0.022,4.053,3.2,7.227,7.253,7.205l172.195,0.381L324.472,123.99z"/>
			<path style="fill:none;stroke:#506ED8;stroke-width:2;stroke-linecap:round;stroke-miterlimit:10;" d="M144.801,143.098
				c-6.054-1.826-10.365-6.758-10.339-12.34c-0.024-7.229,7.047-13.182,15.805-13.159c7.229-0.024,13.277,3.991,15.115,9.545"/>
			<path style="fill:none;stroke:#506ED8;stroke-width:2;stroke-linecap:round;stroke-miterlimit:10;" d="M144.685,178.343
				c-6.054-1.826-10.365-6.758-10.339-12.34c-0.024-7.229,7.047-13.182,15.804-13.159c7.229-0.024,13.277,3.991,15.116,9.545"/>
			<path style="fill:none;stroke:#506ED8;stroke-width:2;stroke-linecap:round;stroke-miterlimit:10;" d="M144.623,214.141
				c-6.054-1.826-10.365-6.758-10.339-12.34c-0.024-7.229,7.047-13.182,15.805-13.159c7.229-0.024,13.277,3.991,15.115,9.545"/>
			<path style="fill:none;stroke:#506ED8;stroke-width:2;stroke-linecap:round;stroke-miterlimit:10;" d="M144.508,249.387
				c-6.054-1.826-10.365-6.758-10.339-12.34c-0.024-7.229,7.047-13.182,15.804-13.159c7.229-0.024,13.277,3.991,15.116,9.545"/>
			<path style="fill:none;stroke:#506ED8;stroke-width:2;stroke-linecap:round;stroke-miterlimit:10;" d="M144.426,280.037
				c-6.054-1.826-10.365-6.758-10.339-12.34c-0.024-7.229,7.047-13.182,15.804-13.159c7.229-0.024,13.277,3.991,15.116,9.545"/>
			<path style="fill:none;stroke:#506ED8;stroke-width:2;stroke-linecap:round;stroke-miterlimit:10;" d="M144.394,316.605
				c-6.054-1.826-10.365-6.758-10.339-12.34c-0.024-7.229,7.047-13.182,15.805-13.159c7.229-0.024,13.277,3.991,15.115,9.545"/>
			
				<line style="fill:none;stroke:#FFFFFF;stroke-width:2;stroke-linecap:round;stroke-miterlimit:10;" x1="181.62" y1="127.881" x2="294.813" y2="128.117"/>
			
				<line style="fill:none;stroke:#FFFFFF;stroke-width:2;stroke-linecap:round;stroke-miterlimit:10;" x1="181.513" y1="164.113" x2="294.706" y2="164.348"/>
			
				<line style="fill:none;stroke:#FFFFFF;stroke-width:2;stroke-linecap:round;stroke-miterlimit:10;" x1="181.434" y1="197.939" x2="294.627" y2="198.174"/>
			
				<line style="fill:none;stroke:#FFFFFF;stroke-width:2;stroke-linecap:round;stroke-miterlimit:10;" x1="181.628" y1="231.245" x2="294.929" y2="231.491"/>
			
				<line style="fill:none;stroke:#FFFFFF;stroke-width:2;stroke-linecap:round;stroke-miterlimit:10;" x1="181.279" y1="264.495" x2="294.472" y2="264.731"/>
			
				<line style="fill:none;stroke:#FFFFFF;stroke-width:2;stroke-linecap:round;stroke-miterlimit:10;" x1="181.183" y1="300.618" x2="294.485" y2="300.865"/>
		</g>
		<g>
			<g>
				<path style="fill:#7C3301;" d="M370.221,206.693c-0.378,0.599-0.637-1.657-1.364-1.374c-10.88,4.308-18.97-5.649-19.673-10.703
					c-0.713-5.045-11.982-2.076-12.007-10.923c-0.034-8.857,4.083-11.43,3.669-15.971c0,0,0.591-1.121,1.474-2.435
					c1.849-2.734,4.994-6.297,6.872-2.35c2.785,5.852,4.799,5.39,10.62,6.463c5.831,1.064,8.226,5.335,6.232,8.142
					c-2.437,3.418-0.226,4.016,5.202,7.496C381.989,191.924,375.339,198.595,370.221,206.693z"/>
				<path style="fill:#602700;" d="M370.102,205.35c-0.628,0.328-1.31,0.633-2.037,0.916c-10.88,4.308-18.177-6.597-18.88-11.65
					c-0.713-5.045-11.982-2.076-12.007-10.923c-0.034-8.857,4.083-11.43,3.669-15.971c0,0,0.591-1.121,1.474-2.435
					c7.541,2.924,9.475,7.135,8.477,10.589c-1.27,4.403,2.061,6.6,10.424,11.766C371.164,193.783,370.465,200.344,370.102,205.35z"
					/>
			</g>
			<g>
				<path style="fill:#7C3301;" d="M358.343,168.365c-4.195,6.837-32.024-3.28-32.024-3.28c-4.514-1.668-6.725-1.127-6.38-3.902
					c0.336-2.776,3.27-5.067,3.462-7.984c0.074-1.133,0.753-2.328,0.821-3.942c0.097-2.551,1.878-5.411,5.487-7.314
					c2.577-1.359,6.847-1.629,9.982-0.27c2.293,0.994,4.98-0.064,7.469-0.294c1.981-0.183,4.775,0.187,8.216,2.273
					c3.648,2.202,5.412,8.051,5.752,12.447C361.465,160.391,360.415,164.977,358.343,168.365z"/>
				<path style="fill:#602700;" d="M358.343,168.365c-4.195,6.837-26.923,12.634-26.923,12.634
					c-4.514-1.668-13.19-7.96-11.48-19.817c0.399-2.768,2.855-5.002,3.397-7.651c0.227-1.113,0.819-2.661,0.886-4.275
					c6.574-6.018,16.081-4.101,20.567,0.217c4.662,4.488,9.244,13.241,16.338,6.625
					C361.465,160.391,360.415,164.977,358.343,168.365z"/>
			</g>
			<g>
				<path style="fill:#FFA0A4;" d="M351.246,191.708c0,0-1.064,6.651-8.196,8.846c-7.126,2.201-10.159-1.15-10.262-4.254
					c-0.008-0.219-0.016-0.437-0.017-0.662c-0.074-3.454,0.113-7.32-0.173-14.15c-0.047-1.07,0.094-2.264,0.388-3.481
					c1.652-7.042,12.707-16.478,14.193-4.34C347.971,180.138,351.246,191.708,351.246,191.708z"/>
				<path style="fill:#F48C93;" d="M332.772,195.638c-0.074-3.454,0.113-7.32-0.173-14.15c-0.047-1.07,0.094-2.264,0.388-3.481
					c3.839,0.386,8.685,2.178,8.909,5.815C342.228,189.253,340.862,195.362,332.772,195.638z"/>
				<g>
					<path style="fill:#FFA0A4;" d="M332.076,186.493c5.467,0.354,14.166-3.194,21.143-12.863c3.32-4.601-1.499-4.809-2.747-7.22
						c-1.248-2.411-1.339-3.181-2.001-5.127c-1.325-3.893-6.045-9.593-9.328-9.593c-5.44-0.001-13.636,1.458-15.852,15.403
						c-0.236,1.485-0.223,6.057,0.486,9.356C325.125,182.718,328.509,186.262,332.076,186.493z"/>
				</g>
				<path style="fill:none;stroke:#DD7A81;stroke-width:0.5;stroke-linecap:round;stroke-linejoin:round;stroke-miterlimit:10;" d="
					M349.935,171.746c0,0,1.284-5.485,5.45-2.738"/>
				<path style="fill:none;stroke:#DD7A81;stroke-width:0.5;stroke-linecap:round;stroke-linejoin:round;stroke-miterlimit:10;" d="
					M353.73,171.567c0,0,0.71-2.443-1.107-3.391"/>
			</g>
			<path style="fill:#FFA0A4;" d="M348.471,169.034c0.492-4.944,7.457-8.306,9.506-1.722c1.774,5.7-4.437,7.046-7.871,6.749
				L348.471,169.034z"/>
			<path style="fill:#372834;" d="M328.593,164.783c0.119,0.831-0.151,1.557-0.604,1.622c-0.453,0.065-0.916-0.556-1.035-1.387
				c-0.119-0.831,0.151-1.557,0.604-1.622C328.01,163.331,328.474,163.952,328.593,164.783z"/>
			<path style="fill:#F48C93;" d="M339.444,171.913c0.773,2.275,3.245,3.493,5.52,2.719c2.275-0.773,3.493-3.245,2.719-5.52
				c-0.773-2.275-3.245-3.493-5.52-2.719C339.888,167.166,338.67,169.637,339.444,171.913z"/>
			<path style="fill:none;stroke:#DD7A81;stroke-width:0.5;stroke-linecap:round;stroke-linejoin:round;stroke-miterlimit:10;" d="
				M330.444,166.949c0,0-1.756,4.883-1.449,5.985c0.307,1.101,2.846-0.298,2.846-0.298"/>
			<path style="fill:#F48C93;" d="M323.119,168.626c0.001-0.177,0.047-0.548,0.048-0.721c1.786,0.028,2.749,0.818,3.356,2.607
				c0.773,2.275-0.537,4.842-2.812,5.615C323.711,176.128,323.099,173.775,323.119,168.626z"/>
			<path style="fill:#372834;" d="M328.514,160.029c0,0,0.384-0.294-0.329-0.613c-0.714-0.319-2.58-0.643-3.84,0.566
				c0,0-0.434,0.449,0.331,0.584C325.099,160.641,327.395,160.768,328.514,160.029z"/>
			<path style="fill:#372834;" d="M334.846,159.304c0,0-0.404-0.266,0.285-0.635c0.689-0.369,2.528-0.826,3.87,0.289
				c0,0,0.465,0.416-0.289,0.607C338.297,159.669,336.015,159.96,334.846,159.304z"/>
			<path style="fill:none;stroke:#DD7A81;stroke-width:0.5;stroke-linecap:round;stroke-linejoin:round;stroke-miterlimit:10;" d="
				M350.472,169.673c0,0,1.707-5.098,5.815-1.503"/>
			<path style="fill:none;stroke:#DD7A81;stroke-width:0.5;stroke-linecap:round;stroke-linejoin:round;stroke-miterlimit:10;" d="
				M354.114,170.699c0,0,1.132-2.542-0.697-3.84"/>
			<path style="fill:#372834;" d="M337.555,164.39c0.119,0.831-0.151,1.557-0.604,1.622c-0.453,0.065-0.916-0.556-1.035-1.387
				c-0.119-0.831,0.151-1.557,0.604-1.622C336.973,162.938,337.436,163.559,337.555,164.39z"/>
			
				<path style="fill:#FFFFFF;stroke:#934735;stroke-width:0.5;stroke-linecap:round;stroke-linejoin:round;stroke-miterlimit:10;" d="
				M332.076,175.664c2.137-0.418,4.638-1.45,4.638-1.45s0.359,2.916-1.51,3.375C333.17,178.088,332.158,176.269,332.076,175.664z"/>
			<path style="fill:#450023;" d="M331.739,430.213c-0.017,6.179,1.779,15.451-2.236,15.442c-3.302-0.007-36.46-0.075-37.923-0.078
				c-1.463-0.003-1.051-4.205,2.975-5.155c4.027-0.951,17.006-7.8,17.988-10.249L331.739,430.213z"/>
			
				<line style="fill:none;stroke:#FFFFFF;stroke-width:0.5;stroke-linecap:round;stroke-linejoin:round;stroke-miterlimit:10;" x1="332.083" y1="441.886" x2="306.749" y2="441.741"/>
			<path style="fill:#450023;" d="M373.506,430.213c0.017,6.179-1.779,15.451,2.237,15.442c3.301-0.007,36.46-0.075,37.923-0.078
				c1.463-0.003,1.051-4.205-2.975-5.155c-4.027-0.951-17.006-7.8-17.988-10.249L373.506,430.213z"/>
			
				<line style="fill:none;stroke:#FFFFFF;stroke-width:0.5;stroke-linecap:round;stroke-linejoin:round;stroke-miterlimit:10;" x1="373.163" y1="441.886" x2="398.496" y2="441.741"/>
			<path style="fill:#6C27A8;" d="M396.874,428.906c0.181,0.957-0.368,1.893-1.356,2.336c-1.915,0.858-5.586,2.026-11.379,2.026
				c-8.009,0-11.775-1.837-13.223-2.828c-0.471-0.323-0.794-0.777-0.92-1.288l-32.97-134.227c0,0-3.414,40.644-3.577,49.165
				c-0.142,7.175-0.966,73.993-0.46,84.501c0.041,0.856-0.555,1.625-1.475,1.921c-2.157,0.694-6.258,1.814-10.227,1.812
				c-3.699-0.002-7.282-1.179-9.069-1.873c-0.733-0.284-1.227-0.891-1.309-1.588c-0.962-8.225-6.748-59.528-8.113-74.462
				c-1.26-13.8-1.557-27.444-2.255-38.106c-0.127-1.904-0.217-3.689-0.263-5.341c-0.335-10.941,0.37-34.068,7.15-49.667
				l48.608-0.913l10.361-0.209c-1.324,6.255,0.88,13.507,2.041,18.974C369.53,284.283,394.007,413.743,396.874,428.906z"/>
			<g>
				<path style="fill:none;stroke:#FFFFFF;stroke-width:0.5;stroke-linecap:round;stroke-linejoin:round;stroke-miterlimit:10;" d="
					M359.445,266.195c0.718,8.303,7.247,11.736,7.247,11.736"/>
				<path style="fill:none;stroke:#FFFFFF;stroke-width:0.5;stroke-linecap:round;stroke-linejoin:round;stroke-miterlimit:10;" d="
					M302.721,277.931c6.5-1.182,7.62-10.716,7.673-11.281"/>
				<path style="fill:none;stroke:#FFFFFF;stroke-width:0.5;stroke-linecap:round;stroke-linejoin:round;stroke-miterlimit:10;" d="
					M334.581,266.522c-0.692,5.226-0.426,11.409-0.426,11.409"/>
				<path style="fill:none;stroke:#FFFFFF;stroke-width:0.5;stroke-linecap:round;stroke-linejoin:round;stroke-miterlimit:10;" d="
					M334.581,280.43c3.383-1.183,4.975-1.016,5.14-2.113c0.165-1.098,0.824-11.795,0.824-11.795"/>
			</g>
			<polygon style="fill:#4D1884;" points="337.026,294.924 332.449,287.307 333.147,367.535 			"/>
			<g id="torso_3_">
				<g>
					<path style="fill:#FFC96C;" d="M294.994,197.84l-11.069,16.105c-3.826,5.136-7.364,8.803-9.668,11.834
						c-3.197,4.198-4.041,7.18-0.017,11.164l0.006,0.007c0.006,0.007,0.006,0.007,0.012,0.013c0.066,0.047,0.132,0.093,0.199,0.127
						c0.235,0.154,0.469,0.308,0.705,0.449c0.163,0.101,0.32,0.195,0.477,0.29c0.218,0.122,0.435,0.244,0.647,0.36
						c0.291,0.15,0.576,0.294,0.861,0.426c0.509,0.248,1.021,0.458,1.515,0.637c0.195,0.071,0.385,0.136,0.568,0.195
						c0.898,0.297,1.764,0.494,2.602,0.608c0.166,0.026,0.333,0.053,0.506,0.061c1.451,0.162,2.801,0.084,4.017-0.156
						c0.376-0.069,0.727-0.151,1.073-0.253c0.987-0.27,1.861-0.637,2.625-1.036c0.146-0.074,0.28-0.148,0.414-0.222
						c0.159-0.086,0.313-0.178,0.453-0.27c0.134-0.087,0.256-0.161,0.384-0.242c0.788-0.527,1.391-1.063,1.784-1.491
						c2.174-2.379,23.997-27.585,23.997-27.585l1.681-3.495l2.252-4.678L294.994,197.84z"/>
					<path style="fill:#F2B255;" d="M293.087,236.444c2.174-2.379,23.997-27.585,23.997-27.585l1.681-3.495
						c-6.574,1.723-4.301-8.651-6.293-0.976L293.087,236.444z"/>
				</g>
				<g>
					<g>
						<g>
							<path style="fill:#FFC96C;" d="M314.874,197.31c0.118,1.474-2.401,5.507-2.401,7.078c0.006,15.109-9.189,53.877-8.529,57.158
								c0.941,4.717,14.127-0.125,22.117,5.162c7.78,5.152,17.155-0.62,19.978,0.555c5.718,2.392,15.714,1.006,16.652-1.068
								c0.932-2.069-1.242-15.491-1.242-15.491l1.931,0.109l20.197,5.649c-1.035-11.251-2.2-29.589-6.372-40.452
								c-2.277-5.919-7.839-14.701-12.379-19.402c-1.575-1.632-10.327-5.163-12.468-4.416c-3.24,1.131-2.204,5.647-7.123,5.647
								C336.445,197.84,314.874,197.31,314.874,197.31z"/>
							<path style="fill:#F2B255;" d="M383.577,251.565c4.513,21.02-32.305,33.527-32.64-21.566
								C363.353,212.869,379.887,228.966,383.577,251.565z"/>
						</g>
					</g>
					
						<path style="fill:none;stroke:#C17E25;stroke-width:0.5;stroke-linecap:round;stroke-linejoin:round;stroke-miterlimit:10;" d="
						M313.213,197.84c0.336,4.058-1.258,13.48-1.685,17.954"/>
				</g>
			</g>
			<g id="hnad_1_">
				<path style="fill:#FFC96C;" d="M249.968,190.257c0,0,3.168,8.199,7.209,17.637c3.329,7.797,7.268,16.438,10.502,21.987
					c0.25,0.427,0.5,0.835,0.764,1.227c0.107,0.183,0.23,0.359,0.35,0.527c0.093,0.151,0.194,0.298,0.304,0.442
					c0.177,0.258,0.367,0.501,0.545,0.739c0.197,0.259,0.398,0.507,0.596,0.746c0.052,0.054,0.092,0.104,0.136,0.161
					c0.173,0.203,0.35,0.394,0.527,0.585c0.025,0.037,0.059,0.07,0.092,0.104c0.211,0.225,0.429,0.446,0.641,0.651
					c0.018,0.021,0.04,0.049,0.075,0.063c9.732,6.647,16.24,4.185,18.053-2.495c1.287-4.7,0.231-11.486-3.653-18.663l-19.912-28.972
					L249.968,190.257z"/>
				<path style="fill:none;stroke:#C17E25;stroke-width:0.5;stroke-linecap:round;stroke-linejoin:round;stroke-miterlimit:10;" d="
					M286.102,213.962c1.427,2.061,3.511,6.127,3.511,6.127"/>
			</g>
			<g>
				<path style="fill:#B256DF;" d="M218.434,159.841l7.751,7.548l11.738,11.413c0,0,101.48,38.893,150.181,57.481
					c13.407,5.115,22.808,8.694,25.005,9.499c7.305,2.684,15.286-15.1,6.911-18.877c-0.656-0.297-9.935-3.957-23.916-9.459
					c-48.014-18.89-151.516-59.436-151.516-59.436l-15.329,1.075L218.434,159.841z"/>
				<g>
					
						<line style="fill:none;stroke:#DDDDDD;stroke-width:0.5;stroke-linecap:round;stroke-linejoin:round;stroke-miterlimit:10;" x1="379.015" y1="218.198" x2="250.594" y2="167.28"/>
					
						<line style="fill:none;stroke:#DDDDDD;stroke-width:0.5;stroke-linecap:round;stroke-linejoin:round;stroke-miterlimit:10;" x1="374.841" y1="224.732" x2="247.544" y2="174.259"/>
				</g>
				<path style="fill:#D999FF;" d="M229.258,159.084c0.02,3.002-1.147,5.946-3.074,8.305l11.738,11.413c0,0,4.452-2.473,1.423-7.275
					c3.498-0.253,5.895-4.002,1.735-6.682c0,0,5.255-1.383,3.507-6.836L229.258,159.084z"/>
				<path style="fill:#4D1884;" d="M218.434,159.841l7.751,7.548c1.927-2.359,3.093-5.303,3.074-8.305L218.434,159.841z"/>
				<path style="fill:none;stroke:#DDDDDD;stroke-width:0.5;stroke-linecap:round;stroke-linejoin:round;stroke-miterlimit:10;" d="
					M396.103,217.445c-2.654,6.274-5.575,13.155-8,18.838c13.407,5.115,22.808,8.694,25.005,9.499
					c7.305,2.684,15.286-15.1,6.911-18.877C419.363,226.608,410.084,222.947,396.103,217.445z"/>
			</g>
			<g>
				<path style="fill:#FFA0A4;" d="M264.394,191.587c1.387-9.896,0.401-11.321-0.69-11.479c-1.091-0.157-2.537,4.488-2.811,5.881
					c0,0,0.683-8.062-1.3-9.036c-1.983-0.974-2.819,2.451-2.819,2.451s-1.861-3.097-3.921,0.933c0,0-0.995-1.591-2.06,0.369
					c-1.064,1.96-1.408,10.115,0.893,11.577C253.986,193.745,263.723,196.375,264.394,191.587z"/>
				<path style="fill:none;stroke:#EF8A66;stroke-width:0.5;stroke-linecap:round;stroke-linejoin:round;stroke-miterlimit:10;" d="
					M264.896,187.355c0.557-6.099-0.281-7.115-1.193-7.247c-1.091-0.157-2.537,4.488-2.811,5.881c0,0,0.683-8.062-1.3-9.036
					c-1.983-0.974-2.819,2.451-2.819,2.451s-1.861-3.097-3.921,0.933c0,0-0.995-1.591-2.06,0.369"/>
				
					<line style="fill:none;stroke:#EF8A66;stroke-width:0.5;stroke-linecap:round;stroke-linejoin:round;stroke-miterlimit:10;" x1="256.774" y1="179.404" x2="256.655" y2="187.547"/>
				
					<line style="fill:none;stroke:#EF8A66;stroke-width:0.5;stroke-linecap:round;stroke-linejoin:round;stroke-miterlimit:10;" x1="252.867" y1="187.776" x2="252.852" y2="180.337"/>
			</g>
			
				<line style="fill:none;stroke:#EF8A66;stroke-width:0.5;stroke-linecap:round;stroke-linejoin:round;stroke-miterlimit:10;" x1="260.893" y1="185.99" x2="260.575" y2="188.53"/>
			<g id="hand_26_">
				<path style="fill:#DB9B45;" d="M333.351,230.98c-0.015-0.319,1.618-4.994,5.901-9.014l4.613,7.215
					C343.865,229.18,337.428,234.257,333.351,230.98z"/>
				<g>
					<path style="fill:#FFA0A4;" d="M351.122,217.793c-1.88-1.527-4.648-3.856-4.903-4.316c-0.256-0.46-1.674-4.492-2.417-6.092
						c-0.743-1.6-3.745-8-4.414-7.99c-0.669,0.01-1.762,1.378-1.527,3.03c0,0-4.051-5.778-6.263-7.548
						c-1.797-1.438-2.56,0.628-1.78,2.277c-1.509-2.22-4.558-2.842-2.988,0.928c-1.704-1.519-3.607-0.67-1.966,3.348
						c-1.084-1.935-2.978-1.397-2.424,1.086c0.905,4.059,4.766,9.176,5.993,10.784c1.227,1.608,10.02,10.22,12.59,14.895
						C341.024,228.196,348.201,224.221,351.122,217.793z"/>
					
						<path style="fill:none;stroke:#EF8A66;stroke-width:0.5;stroke-linecap:round;stroke-linejoin:round;stroke-miterlimit:10;" d="
						M343.802,207.385c-0.743-1.6-3.745-8-4.414-7.99c-0.669,0.01-1.762,1.378-1.527,3.03c0,0-4.051-5.778-6.263-7.548
						c-1.797-1.438-2.56,0.628-1.78,2.277c-1.509-2.22-4.558-2.842-2.988,0.928c-1.704-1.519-3.607-0.67-1.966,3.348
						c-1.084-1.935-2.978-1.397-2.424,1.086"/>
					
						<line style="fill:none;stroke:#EF8A66;stroke-width:0.5;stroke-linecap:round;stroke-linejoin:round;stroke-miterlimit:10;" x1="337.862" y1="202.426" x2="339.837" y2="205.602"/>
					
						<line style="fill:none;stroke:#EF8A66;stroke-width:0.5;stroke-linecap:round;stroke-linejoin:round;stroke-miterlimit:10;" x1="329.819" y1="197.155" x2="333.968" y2="203.501"/>
					
						<line style="fill:none;stroke:#EF8A66;stroke-width:0.5;stroke-linecap:round;stroke-linejoin:round;stroke-miterlimit:10;" x1="326.831" y1="198.083" x2="331.106" y2="205.32"/>
					
						<line style="fill:none;stroke:#EF8A66;stroke-width:0.5;stroke-linecap:round;stroke-linejoin:round;stroke-miterlimit:10;" x1="324.865" y1="201.431" x2="328.073" y2="207.345"/>
					<path style="fill:#FFC96C;" d="M349.483,213.958c9.544,7.383,26.018,21.883,33.589,40.439
						c2.93,7.18-7.268,23.368-20.991,12.939c-13.723-10.43-28.73-36.356-28.73-36.356S339.893,233.288,349.483,213.958z"/>
					
						<path style="fill:none;stroke:#C17E25;stroke-width:0.5;stroke-linecap:round;stroke-linejoin:round;stroke-miterlimit:10;" d="
						M354.167,259.926c-11.008-12.003-20.815-28.946-20.815-28.946s6.542,2.309,16.132-17.021
						c5.425,4.197,13.089,10.693,20.084,18.926"/>
				</g>
			</g>
		</g>
		
			<line style="fill:none;stroke:#2D2B82;stroke-width:0.5;stroke-linecap:round;stroke-linejoin:round;stroke-miterlimit:10;" x1="434.579" y1="445.655" x2="83.807" y2="445.655"/>
		<g>
			<path style="fill:#5757EA;" d="M420.407,125.901H392.1c-2.718,0-4.921,2.203-4.921,4.921v14.623l-5.195,8.746
				c-0.444,0.747,0.247,1.655,1.085,1.427l8.4-2.287c0.207,0.027,0.417,0.045,0.632,0.045h28.307c2.718,0,4.921-2.203,4.921-4.921
				v-17.632C425.328,128.105,423.125,125.901,420.407,125.901z"/>
			<path style="fill:none;stroke:#E8E8E8;stroke-width:0.5;stroke-linecap:round;stroke-linejoin:round;stroke-miterlimit:10;" d="
				M400.524,140.778c0,1.179-0.955,2.134-2.134,2.134c-1.179,0-2.134-0.955-2.134-2.134c0-1.178,0.955-2.134,2.134-2.134
				C399.569,138.644,400.524,139.599,400.524,140.778z"/>
			<path style="fill:none;stroke:#E8E8E8;stroke-width:0.5;stroke-linecap:round;stroke-linejoin:round;stroke-miterlimit:10;" d="
				M408.854,140.778c0,1.179-0.956,2.134-2.134,2.134c-1.179,0-2.134-0.955-2.134-2.134c0-1.178,0.955-2.134,2.134-2.134
				C407.899,138.644,408.854,139.599,408.854,140.778z"/>
			<path style="fill:none;stroke:#E8E8E8;stroke-width:0.5;stroke-linecap:round;stroke-linejoin:round;stroke-miterlimit:10;" d="
				M417.105,140.778c0,1.179-0.955,2.134-2.134,2.134c-1.179,0-2.134-0.955-2.134-2.134c0-1.178,0.955-2.134,2.134-2.134
				C416.149,138.644,417.105,139.599,417.105,140.778z"/>
		</g>
		<g>
			<path style="fill:#8D8FFF;" d="M140.581,403.832c0,0,2.29-8.633-4.481-10.585c-6.77-1.952-16.004-1.939-18.563,4.007
				c-2.559,5.946,5.237,5.576,10.475,5.185C133.251,402.049,135.66,410.886,140.581,403.832z"/>
			<path style="fill:#8D8FFF;" d="M142.507,380.366c0,0,3.188-2.923,2.899-12.889c-0.288-9.965-5.141-26.552-13.097-22.848
				c-7.955,3.704-3.875,23.469,0.356,30.844C136.896,382.85,142.507,380.366,142.507,380.366z"/>
			<path style="fill:none;stroke:#4747A8;stroke-width:0.5;stroke-linecap:round;stroke-miterlimit:10;" d="M135.696,357.589
				c0,0,12.018,38.935,10.563,66.293c0,0-0.984-25.991-19.337-27.623"/>
			<path style="fill:#8D8FFF;" d="M162.245,399.587c0,0-5.677-6.895-0.335-11.489c5.342-4.594,13.742-8.429,18.546-4.088
				c4.803,4.34-2.439,7.251-7.364,9.077C168.167,394.913,169.657,403.95,162.245,399.587z"/>
			<path style="fill:none;stroke:#4747A8;stroke-width:0.5;stroke-linecap:round;stroke-miterlimit:10;" d="M175.043,386.481
				c0,0-21.116,6.53-19.491,31.666"/>
			<path style="fill:#1818A0;" d="M164.001,416.924h-29.753c-1.064,0-1.927,0.863-1.927,1.927v2.845
				c0,1.064,0.863,1.927,1.927,1.927h29.753c1.064,0,1.927-0.863,1.927-1.927v-2.845
				C165.928,417.787,165.065,416.924,164.001,416.924z"/>
			<path style="fill:#1818A0;" d="M137.624,445.655l23.492-0.047c1.067-0.002,1.929-0.87,1.923-1.937l-0.101-20.38h-27.295
				l0.051,20.441C135.696,444.797,136.561,445.657,137.624,445.655z"/>
			
				<line style="fill:none;stroke:#FFFFFF;stroke-width:0.5;stroke-linecap:round;stroke-miterlimit:10;" x1="162.883" y1="423.679" x2="138.3" y2="423.679"/>
		</g>
		<g>
			<path style="fill:#FFFFFF;" d="M82.791,177.441c2.23-1.217,6.749-2.093,6.394-8.135c-0.047-0.798,1.247-0.894,1.631-0.192
				c1.266,2.313,2.495,6.682,7.895,7.667c0.675,0.123,0.81,1.333,0.153,1.532c-4.786,1.447-5.413,4.293-6.621,7.771
				c-0.257,0.739-1.249,0.852-1.622,0.165c-1.335-2.456-1.401-5.915-7.668-7.185C82.182,178.908,82.101,177.818,82.791,177.441z"/>
			<path style="fill:#FFFFFF;" d="M232.155,61.625c1.397-0.705,4.228-1.212,4.006-4.712c-0.029-0.462,0.781-0.518,1.022-0.111
				c0.793,1.34,1.563,3.87,4.946,4.441c0.423,0.071,0.508,0.772,0.096,0.887c-2.999,0.838-3.391,2.487-4.148,4.502
				c-0.161,0.428-0.782,0.494-1.016,0.096c-0.837-1.423-0.878-3.426-4.804-4.162C231.773,62.474,231.722,61.843,232.155,61.625z"/>
			<path style="fill:#FFFFFF;" d="M227.885,359.909c1.835-1.002,5.554-1.722,5.262-6.695c-0.039-0.657,1.027-0.736,1.342-0.158
				c1.042,1.904,2.053,5.499,6.498,6.31c0.555,0.101,0.667,1.097,0.126,1.261c-3.939,1.191-4.455,3.533-5.45,6.396
				c-0.211,0.608-1.028,0.701-1.335,0.136c-1.099-2.021-1.153-4.868-6.311-5.913C227.383,361.117,227.317,360.22,227.885,359.909z"
				/>
			<path style="fill:#FFFFFF;" d="M432.4,196.49c0,2.43-1.97,4.4-4.4,4.4c-2.43,0-4.4-1.97-4.4-4.4c0-2.43,1.97-4.4,4.4-4.4
				C430.43,192.09,432.4,194.06,432.4,196.49z"/>
			<path style="fill:#FFFFFF;" d="M84.459,300.865c0,3.038-2.463,5.502-5.502,5.502c-3.039,0-5.502-2.463-5.502-5.502
				c0-3.039,2.463-5.502,5.502-5.502C81.995,295.363,84.459,297.827,84.459,300.865z"/>
		</g>
	</g>
</g>
</svg>
